<svg xmlns="http://www.w3.org/2000/svg" width="111" height="32" fill="none" xmlns:v="https://vecta.io/nano"><path d="M1.104 2.12h15.808v4.304H5.776l.384-.4v5.912l-.384-.4h10.208v4.08H5.776l.384-.4v5.88l-.384-.4H17.2V25H1.104V2.12zm23.422 5.24V25h-4.792V7.36h4.792zm.048-6.04v4.192h-4.888V1.32h4.888zM40.33 7.36h4.792v15.272c0 1.365-.211 2.597-.632 3.696-.416 1.099-1.013 2.032-1.792 2.8-.773.773-1.715 1.368-2.824 1.784-1.104.421-2.339.632-3.704.632-.853 0-1.661-.08-2.424-.24-.757-.155-1.456-.381-2.096-.68a7.68 7.68 0 0 1-1.728-1.08c-.512-.421-.947-.899-1.304-1.432-.357-.528-.632-1.104-.824-1.728s-.288-1.288-.288-1.992h4.776c0 .512.093.976.28 1.392.192.421.456.781.792 1.08.336.304.739.539 1.208.704s.981.248 1.536.248c.656 0 1.245-.117 1.768-.352s.965-.576 1.328-1.024c.363-.443.643-.981.84-1.616.197-.64.296-1.36.296-2.16v-4.032l.024-.016c-.192.885-.467 1.675-.824 2.368s-.792 1.28-1.304 1.76c-.512.475-1.093.837-1.744 1.088-.651.245-1.368.368-2.152.368-.688 0-1.341-.096-1.96-.288a6.56 6.56 0 0 1-1.704-.832c-.523-.363-.995-.803-1.416-1.32a7.96 7.96 0 0 1-1.072-1.744c-.293-.645-.52-1.349-.68-2.112-.155-.768-.232-1.579-.232-2.432s.077-1.659.232-2.416c.16-.757.387-1.453.68-2.088.293-.64.651-1.211 1.072-1.712a6.72 6.72 0 0 1 1.416-1.288 6.33 6.33 0 0 1 1.704-.808c.619-.187 1.275-.28 1.968-.28.779 0 1.493.12 2.144.36a5.31 5.31 0 0 1 1.744 1.056c.512.464.947 1.037 1.304 1.72.357.677.632 1.456.824 2.336l-.024-.024V7.36zm0 8.112c0-.485-.043-.933-.128-1.344-.08-.411-.203-.781-.368-1.112-.16-.331-.36-.621-.6-.872-.235-.251-.509-.461-.824-.632-.309-.171-.656-.296-1.04-.376-.384-.085-.8-.128-1.248-.128-.656 0-1.235.091-1.736.272a3.12 3.12 0 0 0-1.264.832c-.341.368-.6.832-.776 1.392-.171.56-.256 1.216-.256 1.968 0 .757.085 1.421.256 1.992.176.571.435 1.051.776 1.44a3.26 3.26 0 0 0 1.264.872c.501.197 1.08.296 1.736.296.448 0 .864-.045 1.248-.136s.731-.224 1.04-.4a3.55 3.55 0 0 0 .824-.664 3.56 3.56 0 0 0 .6-.904 4.58 4.58 0 0 0 .368-1.136c.085-.416.128-.869.128-1.36zm12.001 1.024c0 .8.101 1.52.304 2.16.208.635.504 1.173.888 1.616s.851.784 1.4 1.024c.555.235 1.181.352 1.88.352.464 0 .891-.053 1.28-.16.395-.112.749-.277 1.064-.496a3.76 3.76 0 0 0 .848-.824c.251-.331.461-.712.632-1.144h4.504c-.24 1.003-.616 1.904-1.128 2.704s-1.133 1.477-1.864 2.032c-.725.555-1.552.979-2.48 1.272-.923.299-1.92.448-2.992.448-1.333 0-2.547-.224-3.64-.672s-2.032-1.08-2.816-1.896c-.779-.821-1.384-1.803-1.816-2.944-.427-1.147-.64-2.416-.64-3.808 0-1.381.211-2.643.632-3.784.427-1.141 1.027-2.117 1.8-2.928.773-.816 1.701-1.448 2.784-1.896s2.283-.672 3.6-.672c1.301 0 2.483.221 3.544.664a7.6 7.6 0 0 1 2.728 1.872c.757.805 1.341 1.779 1.752 2.92.411 1.136.616 2.403.616 3.8l-.016.648-.048.656H50.723v-2.96h11.896l-1.944 2.912.04-.616.016-.608c0-.907-.091-1.701-.272-2.384-.176-.688-.437-1.264-.784-1.728s-.779-.813-1.296-1.048c-.512-.24-1.107-.36-1.784-.36-.672 0-1.272.117-1.8.352a3.62 3.62 0 0 0-1.344 1.024c-.363.443-.64.987-.832 1.632s-.288 1.376-.288 2.192v.648zm20.325.448V25h-4.792V7.36h4.792v6.216l-.016.024c.149-.96.379-1.824.688-2.592.309-.773.707-1.429 1.192-1.968a4.93 4.93 0 0 1 1.728-1.24c.667-.293 1.435-.44 2.304-.44H79.6v4.512h-1.848c-.981 0-1.8.101-2.456.304-.651.203-1.173.512-1.568.928-.389.416-.667.944-.832 1.584-.16.635-.24 1.387-.24 2.256z" fill="#24ffbc"/><path d="M103.285 28l-7.584-8.704L88.629 28h-6.592l10.496-12.48L82.709 4h6.592l6.752 8.224L103.029 4h6.56L99.061 15.808 109.909 28h-6.624z" fill="#f5f5f5"/></svg>